<mxfile host="app.diagrams.net" modified="2020-11-20T10:54:15.774Z" agent="5.0 (Macintosh; Intel Mac OS X 10_14_6) AppleWebKit/605.1.15 (KHTML, like Gecko) Version/14.0 Safari/605.1.15" etag="z4JAHrso93gnOh8uOGiL" version="13.10.0" type="github">
  <diagram id="j2qYm_8-Jd-oHcpS0NYU" name="Page-1">
    <mxGraphModel dx="946" dy="570" grid="1" gridSize="10" guides="1" tooltips="1" connect="1" arrows="1" fold="1" page="1" pageScale="1" pageWidth="1100" pageHeight="850" math="0" shadow="0">
      <root>
        <mxCell id="0" />
        <mxCell id="1" parent="0" />
        <mxCell id="X_KLDYMmQ93XXU2r8fMj-3" style="edgeStyle=orthogonalEdgeStyle;rounded=0;orthogonalLoop=1;jettySize=auto;html=1;exitX=0.5;exitY=1;exitDx=0;exitDy=0;entryX=0.5;entryY=0;entryDx=0;entryDy=0;" edge="1" parent="1" source="X_KLDYMmQ93XXU2r8fMj-1" target="X_KLDYMmQ93XXU2r8fMj-2">
          <mxGeometry relative="1" as="geometry" />
        </mxCell>
        <mxCell id="X_KLDYMmQ93XXU2r8fMj-1" value="Requirements&amp;nbsp;" style="rounded=0;whiteSpace=wrap;html=1;" vertex="1" parent="1">
          <mxGeometry x="400" y="80" width="120" height="60" as="geometry" />
        </mxCell>
        <mxCell id="X_KLDYMmQ93XXU2r8fMj-5" style="edgeStyle=orthogonalEdgeStyle;rounded=0;orthogonalLoop=1;jettySize=auto;html=1;exitX=0.5;exitY=1;exitDx=0;exitDy=0;entryX=0.5;entryY=0;entryDx=0;entryDy=0;" edge="1" parent="1" source="X_KLDYMmQ93XXU2r8fMj-2" target="X_KLDYMmQ93XXU2r8fMj-4">
          <mxGeometry relative="1" as="geometry" />
        </mxCell>
        <mxCell id="X_KLDYMmQ93XXU2r8fMj-2" value="Design" style="whiteSpace=wrap;html=1;aspect=fixed;" vertex="1" parent="1">
          <mxGeometry x="420" y="190" width="80" height="80" as="geometry" />
        </mxCell>
        <mxCell id="X_KLDYMmQ93XXU2r8fMj-8" style="edgeStyle=orthogonalEdgeStyle;rounded=0;orthogonalLoop=1;jettySize=auto;html=1;exitX=0.5;exitY=1;exitDx=0;exitDy=0;entryX=0.5;entryY=0;entryDx=0;entryDy=0;" edge="1" parent="1" source="X_KLDYMmQ93XXU2r8fMj-4" target="X_KLDYMmQ93XXU2r8fMj-6">
          <mxGeometry relative="1" as="geometry" />
        </mxCell>
        <mxCell id="X_KLDYMmQ93XXU2r8fMj-4" value="Implementation" style="whiteSpace=wrap;html=1;aspect=fixed;" vertex="1" parent="1">
          <mxGeometry x="420" y="330" width="80" height="80" as="geometry" />
        </mxCell>
        <mxCell id="X_KLDYMmQ93XXU2r8fMj-6" value="Testing" style="whiteSpace=wrap;html=1;aspect=fixed;" vertex="1" parent="1">
          <mxGeometry x="420" y="470" width="80" height="80" as="geometry" />
        </mxCell>
      </root>
    </mxGraphModel>
  </diagram>
</mxfile>
